<svg width="199" height="38" viewBox="0 0 199 38" fill="none" xmlns="http://www.w3.org/2000/svg">
<path d="M1.46484 22.2549C1.24023 22.0596 1.08398 21.8838 0.996094 21.7275C0.917969 21.5713 0.878906 21.415 0.878906 21.2588C0.878906 21.1025 0.913086 20.9561 0.981445 20.8193C1.0498 20.6826 1.18164 20.4971 1.37695 20.2627L5.87402 14.9014C6.04004 14.6963 6.19629 14.5352 6.34277 14.418C6.49902 14.3008 6.66992 14.2129 6.85547 14.1543C7.05078 14.0859 7.27539 14.042 7.5293 14.0225C7.79297 14.0029 8.11035 13.9932 8.48145 13.9932C8.8916 13.9932 9.22852 14.0029 9.49219 14.0225C9.76562 14.042 9.98047 14.0762 10.1367 14.125C10.3027 14.1738 10.415 14.2422 10.4736 14.3301C10.542 14.4082 10.5762 14.5059 10.5762 14.623C10.5762 14.7793 10.5225 14.9404 10.415 15.1064C10.3174 15.2627 10.1465 15.4824 9.90234 15.7656L4.73145 21.2588L9.49219 25.6826C9.76562 25.9365 9.99512 26.1611 10.1807 26.3564C10.376 26.542 10.4736 26.7129 10.4736 26.8691C10.4736 26.9863 10.4541 27.084 10.415 27.1621C10.376 27.2402 10.2979 27.3037 10.1807 27.3525C10.0635 27.3916 9.89746 27.4209 9.68262 27.4404C9.47754 27.4502 9.19922 27.4551 8.84766 27.4551C8.62305 27.4551 8.41797 27.4502 8.23242 27.4404C8.05664 27.4307 7.88574 27.4062 7.71973 27.3672C7.55371 27.3184 7.3877 27.25 7.22168 27.1621C7.06543 27.0742 6.89453 26.9473 6.70898 26.7812L1.46484 22.2549Z" fill="#F2D541"/>
<path d="M197.283 22.2549C197.508 22.0596 197.659 21.8838 197.737 21.7275C197.825 21.5713 197.869 21.415 197.869 21.2588C197.869 21.1025 197.835 20.9561 197.767 20.8193C197.698 20.6826 197.566 20.4971 197.371 20.2627L192.874 14.9014C192.708 14.6963 192.547 14.5352 192.391 14.418C192.244 14.3008 192.073 14.2129 191.878 14.1543C191.692 14.0859 191.468 14.042 191.204 14.0225C190.95 14.0029 190.638 13.9932 190.267 13.9932C189.856 13.9932 189.515 14.0029 189.241 14.0225C188.978 14.042 188.763 14.0762 188.597 14.125C188.44 14.1738 188.328 14.2422 188.26 14.3301C188.201 14.4082 188.172 14.5059 188.172 14.623C188.172 14.7793 188.221 14.9404 188.318 15.1064C188.426 15.2627 188.602 15.4824 188.846 15.7656L194.017 21.2588L189.256 25.6826C188.982 25.9365 188.748 26.1611 188.553 26.3564C188.367 26.542 188.274 26.7129 188.274 26.8691C188.274 26.9863 188.294 27.084 188.333 27.1621C188.372 27.2402 188.45 27.3037 188.567 27.3525C188.685 27.3916 188.846 27.4209 189.051 27.4404C189.266 27.4502 189.549 27.4551 189.9 27.4551C190.125 27.4551 190.325 27.4502 190.501 27.4404C190.687 27.4307 190.862 27.4062 191.028 27.3672C191.194 27.3184 191.355 27.25 191.512 27.1621C191.678 27.0742 191.854 26.9473 192.039 26.7812L197.283 22.2549Z" fill="#F2D541"/>
<path d="M18.8311 7.45996C18.8213 7.20605 18.8457 7.00098 18.9043 6.84473C18.9629 6.68848 19.085 6.56641 19.2705 6.47852C19.4658 6.39062 19.7393 6.33203 20.0908 6.30273C20.4424 6.26367 20.9111 6.24414 21.4971 6.24414H21.8633H25.2031C26.209 6.24414 27.1416 6.33691 28.001 6.52246C28.8701 6.69824 29.6221 6.98145 30.2568 7.37207C30.8916 7.75293 31.3848 8.24609 31.7363 8.85156C32.0879 9.44727 32.2539 10.1699 32.2344 11.0195L32.1465 15.0771C32.1367 15.4873 32.0684 15.9121 31.9414 16.3516C31.8242 16.7812 31.6338 17.1963 31.3701 17.5967C31.1162 17.9873 30.7793 18.3486 30.3594 18.6807C29.9492 19.0127 29.4463 19.291 28.8506 19.5156C29.8076 19.8965 30.5645 20.4434 31.1211 21.1562C31.6875 21.8594 31.9512 22.7285 31.9121 23.7637L31.8242 26.3564C31.8047 26.9131 31.6826 27.4697 31.458 28.0264C31.2432 28.5732 30.8818 29.0713 30.374 29.5205C29.876 29.96 29.2119 30.3164 28.3818 30.5898C27.5615 30.8633 26.541 31 25.3203 31H21.7607H21.4971C21.0479 31 20.6865 30.9902 20.4131 30.9707C20.1494 30.9512 19.9492 30.9072 19.8125 30.8389C19.6758 30.7705 19.583 30.6729 19.5342 30.5459C19.4951 30.4092 19.4707 30.2285 19.4609 30.0039L18.8311 7.45996ZM24.8955 18.2266C25.3643 18.2266 25.7549 18.1924 26.0674 18.124C26.3799 18.0557 26.624 17.9385 26.7998 17.7725C26.9854 17.5967 27.1123 17.3721 27.1807 17.0986C27.2588 16.8252 27.293 16.4834 27.2832 16.0732L27.0781 10.5508C27.0684 10.1699 27.0293 9.86719 26.9609 9.64258C26.8926 9.4082 26.7705 9.22754 26.5947 9.10059C26.4189 8.97363 26.1797 8.89063 25.877 8.85156C25.584 8.80273 25.2031 8.77832 24.7344 8.77832H24.1191L23.8555 18.2266H24.8955ZM25.1152 28.6123C25.584 28.6123 25.9746 28.5781 26.2871 28.5098C26.6094 28.4316 26.8633 28.3096 27.0488 28.1436C27.2344 27.9775 27.3613 27.7578 27.4297 27.4844C27.5078 27.2012 27.5371 26.8545 27.5176 26.4443L27.4297 22.6357C27.4102 22.2549 27.3564 21.9473 27.2686 21.7129C27.1904 21.4688 27.0586 21.2783 26.873 21.1416C26.6875 21.0049 26.4385 20.9121 26.126 20.8633C25.8232 20.8145 25.4375 20.79 24.9688 20.79H23.7822L23.5479 28.6123H25.1152ZM35.5303 7.45996C35.5205 7.20605 35.5449 7.00098 35.6035 6.84473C35.6621 6.68848 35.7842 6.56641 35.9697 6.47852C36.165 6.39062 36.4385 6.33203 36.79 6.30273C37.1416 6.26367 37.6104 6.24414 38.1963 6.24414H38.5625H41.9023C42.9082 6.24414 43.8408 6.33691 44.7002 6.52246C45.5693 6.69824 46.3213 6.98145 46.9561 7.37207C47.5908 7.75293 48.084 8.24609 48.4355 8.85156C48.7969 9.44727 48.9629 10.1699 48.9336 11.0195L48.7432 17.9775C48.7334 18.3486 48.6748 18.7246 48.5674 19.1055C48.4697 19.4863 48.3135 19.8525 48.0986 20.2041C47.8838 20.5459 47.6055 20.8682 47.2637 21.1709C46.9316 21.4736 46.5215 21.7373 46.0332 21.9619L48.7725 28.9199C48.9092 29.2715 49.0117 29.5596 49.0801 29.7842C49.1582 29.999 49.1973 30.1846 49.1973 30.3408C49.1973 30.458 49.1777 30.5605 49.1387 30.6484C49.0996 30.7266 49.0117 30.7949 48.875 30.8535C48.748 30.9023 48.5625 30.9414 48.3184 30.9707C48.0742 30.9902 47.752 31 47.3516 31C46.9609 31 46.6436 30.9854 46.3994 30.9561C46.165 30.917 45.9697 30.8535 45.8135 30.7656C45.6572 30.6777 45.5254 30.5605 45.418 30.4141C45.3203 30.2578 45.2129 30.0625 45.0957 29.8281L42.0342 22.6504H40.4229L40.2178 30.0039C40.2178 30.2285 40.1934 30.4092 40.1445 30.5459C40.1055 30.6729 40.0127 30.7705 39.8662 30.8389C39.7295 30.9072 39.5293 30.9512 39.2656 30.9707C39.002 30.9902 38.6455 31 38.1963 31C37.7471 31 37.3857 30.9902 37.1123 30.9707C36.8486 30.9512 36.6484 30.9072 36.5117 30.8389C36.375 30.7705 36.2822 30.6729 36.2334 30.5459C36.1943 30.4092 36.1699 30.2285 36.1602 30.0039L35.5303 7.45996ZM41.5947 20.2627C42.0635 20.2627 42.4541 20.2285 42.7666 20.1602C43.0791 20.082 43.3232 19.96 43.499 19.7939C43.6846 19.6279 43.8115 19.4082 43.8799 19.1348C43.958 18.8516 43.9922 18.5049 43.9824 18.0947L43.7773 10.5508C43.7676 10.1699 43.7285 9.86719 43.6602 9.64258C43.5918 9.4082 43.4697 9.22754 43.2939 9.10059C43.1182 8.97363 42.8789 8.89063 42.5762 8.85156C42.2832 8.80273 41.9023 8.77832 41.4336 8.77832H40.8184L40.4961 20.2627H41.5947ZM52.0098 7.45996C52 7.20605 52.0244 7.00098 52.083 6.84473C52.1416 6.68848 52.2637 6.56641 52.4492 6.47852C52.6445 6.39062 52.918 6.33203 53.2695 6.30273C53.6309 6.26367 54.0996 6.24414 54.6758 6.24414C55.252 6.24414 55.7158 6.26367 56.0674 6.30273C56.4189 6.33203 56.6875 6.39062 56.873 6.47852C57.0684 6.56641 57.1953 6.68848 57.2539 6.84473C57.3223 7.00098 57.3516 7.20605 57.3418 7.45996L56.8438 26.6641C56.834 27.0742 56.8682 27.416 56.9463 27.6895C57.0342 27.9629 57.1709 28.1826 57.3564 28.3486C57.5518 28.5049 57.8008 28.6172 58.1035 28.6855C58.4062 28.7539 58.7725 28.7881 59.2021 28.7881C59.6318 28.7881 59.998 28.7539 60.3008 28.6855C60.6035 28.6172 60.8477 28.5049 61.0332 28.3486C61.2285 28.1826 61.3652 27.9629 61.4434 27.6895C61.5312 27.416 61.5703 27.0742 61.5605 26.6641L61.0479 7.45996C61.0381 7.20605 61.0625 7.00098 61.1211 6.84473C61.1797 6.68848 61.3018 6.56641 61.4873 6.47852C61.6826 6.39062 61.9561 6.33203 62.3076 6.30273C62.6592 6.26367 63.1279 6.24414 63.7139 6.24414C64.29 6.24414 64.7539 6.26367 65.1055 6.30273C65.457 6.33203 65.7256 6.39062 65.9111 6.47852C66.1064 6.56641 66.2334 6.68848 66.292 6.84473C66.3604 7.00098 66.3896 7.20605 66.3799 7.45996L65.8672 26.5322C65.8477 27.167 65.7109 27.7676 65.457 28.334C65.2031 28.9004 64.8076 29.3936 64.2705 29.8135C63.7432 30.2334 63.0596 30.5654 62.2197 30.8096C61.3896 31.0537 60.3838 31.1758 59.2021 31.1758C58.0205 31.1758 57.0098 31.0537 56.1699 30.8096C55.3301 30.5654 54.6416 30.2334 54.1045 29.8135C53.5771 29.3936 53.1865 28.9004 52.9326 28.334C52.6787 27.7676 52.5469 27.167 52.5371 26.5322L52.0098 7.45996ZM69.8369 7.45996C69.8271 7.20605 69.8467 7.00098 69.8955 6.84473C69.9443 6.68848 70.0469 6.56641 70.2031 6.47852C70.3691 6.39062 70.6035 6.33203 70.9062 6.30273C71.2188 6.26367 71.6338 6.24414 72.1514 6.24414C72.5322 6.24414 72.8545 6.25391 73.1182 6.27344C73.3916 6.29297 73.6113 6.33203 73.7773 6.39062C73.9434 6.43945 74.0703 6.50781 74.1582 6.5957C74.2559 6.68359 74.3193 6.80078 74.3486 6.94727L79.8125 21.8154H79.9297L79.2412 7.45996C79.2314 7.20605 79.251 7.00098 79.2998 6.84473C79.3584 6.68848 79.4707 6.56641 79.6367 6.47852C79.8125 6.39062 80.0566 6.33203 80.3691 6.30273C80.6914 6.26367 81.1113 6.24414 81.6289 6.24414C82.2051 6.24414 82.6689 6.26367 83.0205 6.30273C83.3721 6.33203 83.6357 6.39062 83.8115 6.47852C83.9971 6.56641 84.1191 6.68848 84.1777 6.84473C84.2363 7.00098 84.2607 7.20605 84.251 7.45996L83.6064 29.5645C83.5967 29.7891 83.5723 29.9893 83.5332 30.165C83.4941 30.3408 83.416 30.4922 83.2988 30.6191C83.1816 30.7461 83.0059 30.8438 82.7715 30.9121C82.5469 30.9707 82.2441 31 81.8633 31C81.4922 31 81.1895 30.9756 80.9551 30.9268C80.7207 30.8779 80.5498 30.7559 80.4424 30.5605L80.4131 30.5898L74.4805 15.4287H74.3193L74.2021 30.0039C74.1924 30.2285 74.168 30.4092 74.1289 30.5459C74.0898 30.6729 74.0117 30.7705 73.8945 30.8389C73.7773 30.9072 73.6016 30.9512 73.3672 30.9707C73.1426 30.9902 72.8398 31 72.459 31C72.0195 31 71.668 30.9902 71.4043 30.9707C71.1504 30.9512 70.9551 30.9072 70.8184 30.8389C70.6816 30.7705 70.5889 30.6729 70.54 30.5459C70.501 30.4092 70.4766 30.2285 70.4668 30.0039L69.8369 7.45996ZM87.8398 11.0049C87.8203 10.2725 87.9424 9.60352 88.2061 8.99805C88.4697 8.39258 88.8848 7.875 89.4512 7.44531C90.0273 7.01563 90.7646 6.68359 91.6631 6.44922C92.5713 6.20508 93.6602 6.08301 94.9297 6.08301C96.1895 6.08301 97.2686 6.20508 98.167 6.44922C99.0752 6.68359 99.8174 7.01563 100.394 7.44531C100.97 7.875 101.39 8.39258 101.653 8.99805C101.917 9.60352 102.039 10.2725 102.02 11.0049L101.595 26.5322C101.575 27.167 101.438 27.7676 101.185 28.334C100.931 28.9004 100.535 29.3936 99.998 29.8135C99.4707 30.2334 98.7871 30.5654 97.9473 30.8096C97.1172 31.0537 96.1113 31.1758 94.9297 31.1758C93.748 31.1758 92.7373 31.0537 91.8975 30.8096C91.0576 30.5654 90.3691 30.2334 89.832 29.8135C89.3047 29.3936 88.9141 28.9004 88.6602 28.334C88.4062 27.7676 88.2695 27.167 88.25 26.5322L87.8398 11.0049ZM92.5713 26.6641C92.5615 27.0742 92.5957 27.416 92.6738 27.6895C92.7617 27.9629 92.8984 28.1826 93.084 28.3486C93.2793 28.5049 93.5283 28.6172 93.8311 28.6855C94.1338 28.7539 94.5 28.7881 94.9297 28.7881C95.3594 28.7881 95.7256 28.7539 96.0283 28.6855C96.3311 28.6172 96.5752 28.5049 96.7607 28.3486C96.9561 28.1826 97.0928 27.9629 97.1709 27.6895C97.2588 27.416 97.2979 27.0742 97.2881 26.6641L96.8633 10.5508C96.8535 10.1211 96.8047 9.7793 96.7168 9.52539C96.6289 9.27148 96.502 9.07617 96.3359 8.93945C96.1797 8.80273 95.9844 8.71484 95.75 8.67578C95.5156 8.62695 95.2422 8.60254 94.9297 8.60254C94.6172 8.60254 94.3438 8.62695 94.1094 8.67578C93.875 8.71484 93.6748 8.80273 93.5088 8.93945C93.3525 9.07617 93.2305 9.27148 93.1426 9.52539C93.0547 9.7793 93.0059 10.1211 92.9961 10.5508L92.5713 26.6641ZM113.211 24.9209C113.201 24.6279 113.221 24.3936 113.27 24.2178C113.318 24.0322 113.416 23.8955 113.562 23.8076C113.719 23.71 113.934 23.6465 114.207 23.6172C114.48 23.5879 114.842 23.5732 115.291 23.5732C115.74 23.5732 116.116 23.5879 116.419 23.6172C116.722 23.6465 116.961 23.71 117.137 23.8076C117.322 23.8955 117.449 24.0322 117.518 24.2178C117.596 24.3936 117.63 24.6279 117.62 24.9209L117.562 26.6641C117.542 27.0742 117.571 27.416 117.649 27.6895C117.737 27.9629 117.874 28.1826 118.06 28.3486C118.255 28.5049 118.504 28.6172 118.807 28.6855C119.109 28.7539 119.476 28.7881 119.905 28.7881C120.345 28.7881 120.716 28.7539 121.019 28.6855C121.331 28.6172 121.58 28.5049 121.766 28.3486C121.951 28.1826 122.083 27.9629 122.161 27.6895C122.239 27.416 122.278 27.0742 122.278 26.6641L122.264 25.7119C122.264 25.3701 122.249 25.0625 122.22 24.7891C122.19 24.5059 122.127 24.252 122.029 24.0273C121.941 23.8027 121.805 23.6025 121.619 23.4268C121.443 23.251 121.194 23.0947 120.872 22.958L115.789 20.79C115.232 20.5459 114.769 20.2725 114.397 19.9697C114.026 19.667 113.729 19.3203 113.504 18.9297C113.289 18.5391 113.133 18.0996 113.035 17.6113C112.938 17.123 112.879 16.5762 112.859 15.9707L112.713 11.0049C112.693 10.2725 112.811 9.60352 113.064 8.99805C113.328 8.39258 113.748 7.875 114.324 7.44531C114.9 7.01563 115.638 6.68359 116.536 6.44922C117.444 6.20508 118.533 6.08301 119.803 6.08301C121.072 6.08301 122.156 6.20508 123.055 6.44922C123.963 6.68359 124.7 7.01563 125.267 7.44531C125.843 7.875 126.263 8.39258 126.526 8.99805C126.79 9.60352 126.912 10.2725 126.893 11.0049L126.746 16.8643C126.736 17.1572 126.692 17.3965 126.614 17.582C126.536 17.7578 126.404 17.8945 126.219 17.9922C126.033 18.0801 125.784 18.1387 125.472 18.168C125.169 18.1973 124.793 18.2119 124.344 18.2119C123.885 18.2119 123.499 18.1973 123.187 18.168C122.884 18.1387 122.64 18.0801 122.454 17.9922C122.269 17.8945 122.137 17.7578 122.059 17.582C121.98 17.3965 121.937 17.1572 121.927 16.8643L121.751 10.5508C121.741 10.1211 121.692 9.7793 121.604 9.52539C121.517 9.27148 121.39 9.07617 121.224 8.93945C121.067 8.80273 120.867 8.71484 120.623 8.67578C120.389 8.62695 120.115 8.60254 119.803 8.60254C119.49 8.60254 119.212 8.62695 118.968 8.67578C118.733 8.71484 118.533 8.80273 118.367 8.93945C118.211 9.07617 118.089 9.27148 118.001 9.52539C117.913 9.7793 117.864 10.1211 117.854 10.5508L117.693 16.3955C117.684 16.7666 117.698 17.0938 117.737 17.377C117.786 17.6504 117.869 17.8945 117.986 18.1094C118.113 18.3242 118.279 18.5146 118.484 18.6807C118.689 18.8467 118.953 18.998 119.275 19.1348L124.021 21.127C124.539 21.3418 124.969 21.5762 125.311 21.8301C125.662 22.0742 125.94 22.3721 126.146 22.7236C126.351 23.0752 126.487 23.4951 126.556 23.9834C126.634 24.4717 126.653 25.0674 126.614 25.7705L126.585 26.5908C126.565 27.2256 126.429 27.8213 126.175 28.3779C125.921 28.9346 125.525 29.4229 124.988 29.8428C124.451 30.2529 123.763 30.5801 122.923 30.8242C122.093 31.0586 121.087 31.1758 119.905 31.1758C118.724 31.1758 117.713 31.0537 116.873 30.8096C116.043 30.5654 115.359 30.2334 114.822 29.8135C114.295 29.3936 113.904 28.9004 113.65 28.334C113.396 27.7676 113.265 27.167 113.255 26.5322L113.211 24.9209ZM129.896 7.45996C129.886 7.20605 129.91 7.00098 129.969 6.84473C130.027 6.68848 130.149 6.56641 130.335 6.47852C130.53 6.39062 130.804 6.33203 131.155 6.30273C131.507 6.26367 131.976 6.24414 132.562 6.24414C133.138 6.24414 133.602 6.26367 133.953 6.30273C134.305 6.33203 134.573 6.39062 134.759 6.47852C134.954 6.56641 135.081 6.68848 135.14 6.84473C135.208 7.00098 135.237 7.20605 135.228 7.45996L134.583 30.0039C134.583 30.2285 134.559 30.4092 134.51 30.5459C134.471 30.6729 134.378 30.7705 134.231 30.8389C134.095 30.9072 133.895 30.9512 133.631 30.9707C133.367 30.9902 133.011 31 132.562 31C132.112 31 131.751 30.9902 131.478 30.9707C131.214 30.9512 131.014 30.9072 130.877 30.8389C130.74 30.7705 130.647 30.6729 130.599 30.5459C130.56 30.4092 130.535 30.2285 130.525 30.0039L129.896 7.45996ZM138.89 7.45996C138.88 7.20605 138.904 7.00098 138.963 6.84473C139.021 6.68848 139.144 6.56641 139.329 6.47852C139.524 6.39062 139.798 6.33203 140.149 6.30273C140.501 6.26367 140.97 6.24414 141.556 6.24414C142.132 6.24414 142.596 6.26367 142.947 6.30273C143.299 6.33203 143.567 6.39062 143.753 6.47852C143.948 6.56641 144.075 6.68848 144.134 6.84473C144.202 7.00098 144.231 7.20605 144.222 7.45996L143.621 28.2754H147.444C147.698 28.2754 147.894 28.2998 148.03 28.3486C148.177 28.3877 148.279 28.4609 148.338 28.5684C148.406 28.666 148.445 28.8027 148.455 28.9785C148.475 29.1543 148.484 29.374 148.484 29.6377C148.484 29.9014 148.475 30.1211 148.455 30.2969C148.445 30.4727 148.406 30.6143 148.338 30.7217C148.279 30.8193 148.177 30.8926 148.03 30.9414C147.894 30.9805 147.698 31 147.444 31H141.556C141.106 31 140.745 30.9902 140.472 30.9707C140.208 30.9512 140.008 30.9072 139.871 30.8389C139.734 30.7705 139.642 30.6729 139.593 30.5459C139.554 30.4092 139.529 30.2285 139.52 30.0039L138.89 7.45996ZM149.568 7.45996C149.51 7.21582 149.505 7.01563 149.554 6.85938C149.612 6.70312 149.734 6.58105 149.92 6.49316C150.115 6.39551 150.389 6.33203 150.74 6.30273C151.092 6.26367 151.541 6.24414 152.088 6.24414C152.703 6.24414 153.187 6.26367 153.538 6.30273C153.899 6.33203 154.173 6.39062 154.358 6.47852C154.554 6.56641 154.686 6.69336 154.754 6.85938C154.822 7.01563 154.871 7.21582 154.9 7.45996L157.156 25.1553H157.625L159.822 7.45996C159.852 7.21582 159.896 7.01563 159.954 6.85938C160.022 6.69336 160.145 6.56641 160.32 6.47852C160.506 6.39062 160.765 6.33203 161.097 6.30273C161.438 6.26367 161.902 6.24414 162.488 6.24414C163.035 6.24414 163.484 6.26367 163.836 6.30273C164.188 6.33203 164.456 6.39551 164.642 6.49316C164.837 6.58105 164.959 6.70312 165.008 6.85938C165.057 7.01563 165.057 7.21582 165.008 7.45996L160.13 30.0039C160.071 30.2188 159.993 30.3945 159.896 30.5312C159.808 30.6582 159.666 30.7559 159.471 30.8242C159.275 30.8926 159.012 30.9414 158.68 30.9707C158.357 30.9902 157.938 31 157.42 31C156.873 31 156.429 30.9902 156.087 30.9707C155.745 30.9414 155.472 30.8926 155.267 30.8242C155.062 30.7559 154.905 30.6582 154.798 30.5312C154.7 30.3945 154.622 30.2188 154.563 30.0039L149.568 7.45996ZM169.725 7.48926C169.764 7.21582 169.827 6.99121 169.915 6.81543C170.013 6.63965 170.184 6.50293 170.428 6.40527C170.682 6.30762 171.043 6.24414 171.512 6.21484C171.98 6.17578 172.615 6.15625 173.416 6.15625C174.207 6.15625 174.837 6.17578 175.306 6.21484C175.774 6.24414 176.131 6.30762 176.375 6.40527C176.629 6.50293 176.8 6.63965 176.888 6.81543C176.976 6.99121 177.044 7.21582 177.093 7.48926L180.975 29.8574C181.014 30.1211 181.009 30.3311 180.96 30.4873C180.921 30.6338 180.823 30.7461 180.667 30.8242C180.521 30.9023 180.315 30.9512 180.052 30.9707C179.788 30.9902 179.466 31 179.085 31C178.616 31 178.24 30.9902 177.957 30.9707C177.684 30.9512 177.469 30.9023 177.312 30.8242C177.156 30.7461 177.039 30.6338 176.961 30.4873C176.893 30.3311 176.839 30.1211 176.8 29.8574L176.199 26.3564H170.618L170.018 29.8574C169.969 30.1211 169.91 30.3311 169.842 30.4873C169.773 30.6338 169.661 30.7461 169.505 30.8242C169.349 30.9023 169.129 30.9512 168.846 30.9707C168.572 30.9902 168.201 31 167.732 31C167.352 31 167.029 30.9902 166.766 30.9707C166.512 30.9512 166.307 30.9023 166.15 30.8242C165.994 30.7461 165.892 30.6338 165.843 30.4873C165.794 30.3311 165.794 30.1211 165.843 29.8574L169.725 7.48926ZM175.716 23.5732L173.475 10.5801H173.343L171.102 23.5732H175.716Z" fill="#F2D541"/>
</svg>
